HIERARCHY
ROOT rootx
{
    OFFSET 0.0 0.0 0.0
    CHANNELS 6 Xposition Yposition Zposition Zrotation Xrotation Yrotation
    JOINT spine_01x
    {
        OFFSET 0.0 8.0 0.0
        CHANNELS 3 Zrotation Xrotation Yrotation
        JOINT spine_02x
        {
            OFFSET 0.0 8.0 0.0
            CHANNELS 3 Zrotation Xrotation Yrotation
            JOINT spine_03x
            {
                OFFSET 0.0 8.0 0.0
                CHANNELS 3 Zrotation Xrotation Yrotation
                JOINT neckx
                {
                    OFFSET 0.0 6.0 0.0
                    CHANNELS 3 Zrotation Xrotation Yrotation
                    JOINT headx
                    {
                        OFFSET 0.0 4.0 0.0
                        CHANNELS 3 Zrotation Xrotation Yrotation
                        End Site
                        {
                            OFFSET 0.0 2.0 0.0
                        }
                    }
                }
                JOINT shoulderr
                {
                    OFFSET 6.0 0.0 0.0
                    CHANNELS 3 Zrotation Xrotation Yrotation
                    JOINT arm_stretchr
                    {
                        OFFSET 0.0 -12.0 0.0
                        CHANNELS 3 Zrotation Xrotation Yrotation
                        JOINT forearm_stretchr
                        {
                            OFFSET 0.0 -12.0 0.0
                            CHANNELS 3 Zrotation Xrotation Yrotation
                            End Site
                            {
                                OFFSET 0.0 -4.0 0.0
                            }
                        }
                    }
                }
                JOINT shoulderl
                {
                    OFFSET -6.0 0.0 0.0
                    CHANNELS 3 Zrotation Xrotation Yrotation
                    JOINT arm_stretchl
                    {
                        OFFSET 0.0 -12.0 0.0
                        CHANNELS 3 Zrotation Xrotation Yrotation
                        JOINT forearm_stretchl
                        {
                            OFFSET 0.0 -12.0 0.0
                            CHANNELS 3 Zrotation Xrotation Yrotation
                            End Site
                            {
                                OFFSET 0.0 -4.0 0.0
                            }
                        }
                    }
                }
            }
        }
    }
    JOINT thigh_stretchl
    {
        OFFSET -3.0 0.0 0.0
        CHANNELS 3 Zrotation Xrotation Yrotation
        JOINT leg_stretchl
        {
            OFFSET 0.0 -15.0 0.0
            CHANNELS 3 Zrotation Xrotation Yrotation
            End Site
            {
                OFFSET 0.0 -5.0 0.0
            }
        }
    }
    JOINT thigh_stretchr
    {
        OFFSET 3.0 0.0 0.0
        CHANNELS 3 Zrotation Xrotation Yrotation
        JOINT leg_stretchr
        {
            OFFSET 0.0 -15.0 0.0
            CHANNELS 3 Zrotation Xrotation Yrotation
            End Site
            {
                OFFSET 0.0 -5.0 0.0
            }
        }
    }
}

MOTION
Frames: 12
Frame Time: 0.033333
1.618034 0.000000 1.213525 4.755283 0.000000 2.427051 -4.702282 0.599620 1.156209 -0.993347 -0.720094 1.078620 0.679020 -0.958441 0.803024 -1.609682 -0.143665 0.728673 0.028318 -0.482061 0.488882 0.000000 -5.877853 6.067627 -3.494170 -6.691289 8.042206 -8.940120 -6.480850 9.707582 -0.000000 -3.090170 -7.132924 3.494170 -6.015784 -10.188580 8.940120 -9.776323 -13.295780 11.755705 -7.936918 5.893724 15.122455 -11.609948 8.700981 -11.755705 3.854029 -4.373812 -15.122455 4.369072 -6.975563
1.636299 0.000000 1.204226 4.786597 0.000000 2.454449 -5.099392 0.854086 1.062620 -1.248449 -0.591519 1.039699 0.556058 -0.917719 0.790764 -1.817802 -0.024058 0.689651 -0.065917 -0.442069 0.477144 -1.308399 -5.313986 5.902013 -5.311988 -5.839381 7.789431 -11.236040 -5.323674 9.357289 1.308399 -3.729878 -7.213060 5.311988 -6.861676 -10.274749 11.236040 -10.781646 -13.372570 11.067831 -7.870581 5.858229 14.024206 -11.427571 8.629792 -11.067831 3.466756 -4.492346 -14.024206 3.754295 -7.139291
1.654161 0.000000 1.194795 4.815813 0.000000 2.481242 -5.476377 1.102857 0.966975 -1.500129 -0.460205 0.999381 0.432120 -0.874278 0.777825 -2.019893 0.095683 0.649509 -0.160006 -0.400419 0.464887 -2.613212 -4.725508 5.728470 -7.115247 -4.960428 7.526194 -13.501163 -4.141842 8.994427 2.613212 -4.352311 -7.283507 7.115247 -7.675789 -10.347117 13.501163 -11.737034 -13.431398 10.360540 -7.780911 5.817698 12.901353 -11.211316 8.551185 -10.360540 3.069206 -4.607019 -12.901353 3.128389 -7.296882
1.671615 0.000000 1.185233 4.842916 0.000000 2.507422 -5.831749 1.344274 0.869461 -1.747698 -0.326759 0.957720 0.307424 -0.828244 0.764217 -2.215286 0.214888 0.608311 -0.253739 -0.357266 0.452123 -3.910862 -4.115144 5.547233 -8.899004 -4.058502 7.252847 -15.729281 -2.940827 8.619484 3.910862 -4.954587 -7.344171 8.899004 -8.454351 -10.405586 15.729281 -12.638062 -13.472185 9.635073 -7.668174 5.772166 11.755867 -10.961825 8.465226 -9.635073 2.662556 -4.717731 -11.755867 2.493209 -7.448199
1.688656 0.000000 1.175540 4.867895 0.000000 2.532984 -6.164106 1.576727 0.770265 -1.990476 -0.191799 0.914774 0.182189 -0.779755 0.749952 -2.403332 0.332890 0.566125 -0.346909 -0.312773 0.438869 -5.197792 -3.485720 5.358545 -10.658369 -3.137778 6.969758 -17.914285 -1.726192 8.232963 5.197792 -5.533915 -7.394970 10.658369 -9.193758 -10.450079 17.914285 -13.480558 -13.494876 8.892704 -7.532705 5.721672 10.589757 -10.679838 8.371989 -8.892704 2.248014 -4.824387 -10.589757 1.850637 -7.593113
1.705280 0.000000 1.165719 4.890738 0.000000 2.557920 -6.472136 1.798667 0.669579 -2.227799 -0.055951 0.870598 0.056634 -0.728954 0.735043 -2.583408 0.449025 0.523018 -0.439309 -0.267107 0.425136 -6.470476 -2.840153 5.162659 -12.388520 -2.202522 6.677307 -20.050188 -0.503562 7.835383 6.470476 -6.087614 -7.435836 12.388520 -9.890584 -10.480535 20.050188 -14.260620 -13.499441 8.134733 -7.374905 5.666258 9.405069 -10.366189 8.271556 -8.134733 1.826807 -4.926895 -9.405069 1.202579 -7.731500
1.721484 0.000000 1.155770 4.911436 0.000000 2.582226 -6.754623 2.008612 0.567598 -2.459015 0.080156 0.825253 -0.069021 -0.675992 0.719501 -2.754916 0.562645 0.479061 -0.530733 -0.220438 0.410941 -7.725425 -2.181432 4.959839 -14.084715 -1.257065 6.375888 -22.131135 0.721400 7.427278 7.725425 -6.613119 -7.466715 14.084715 -10.541603 -10.496913 22.131135 -14.974634 -13.485873 7.362491 -7.195242 5.605974 8.203881 -10.021810 8.164011 -7.362491 1.400184 -5.025168 -8.203881 0.550957 -7.863240
1.737263 0.000000 1.145694 4.929980 0.000000 2.605895 -7.010453 2.205164 0.464519 -2.683491 0.215891 0.778800 -0.194554 -0.621027 0.703341 -2.917288 0.673111 0.434326 -0.620979 -0.172942 0.396299 -8.959199 -1.512608 4.750357 -15.742304 -0.305787 6.065904 -24.151421 1.943021 7.009197 8.959199 -7.107995 -7.487564 15.742304 -11.143799 -10.499192 24.151421 -15.619295 -13.454190 6.577333 -6.994248 5.540870 6.988301 -9.647721 8.049448 -6.577333 0.969411 -5.119121 -6.988301 -0.102300 -7.988220
1.752613 0.000000 1.135493 4.946362 0.000000 2.628920 -7.238616 2.387012 0.360541 -2.900612 0.350627 0.731300 -0.319746 -0.564220 0.686576 -3.069985 0.779806 0.388885 -0.709846 -0.124798 0.381226 -10.168416 -0.836778 4.534493 -17.356746 0.646908 5.747772 -26.105510 3.155643 6.581702 10.168416 -7.569951 -7.498355 17.356746 -11.694383 -10.487368 26.105510 -16.191615 -13.404436 5.780636 -6.772520 5.471002 5.760461 -9.245031 7.927964 -5.780636 0.535764 -5.208673 -5.760461 -0.755253 -8.106332
1.767531 0.000000 1.125167 4.960574 0.000000 2.651297 -7.438212 2.552942 0.255867 -3.109783 0.483739 0.682818 -0.444376 -0.505741 0.669221 -3.212501 0.882131 0.342812 -0.797137 -0.076185 0.365738 -11.349762 -0.157073 4.312539 -18.923613 1.596607 5.421920 -27.988046 4.353650 6.145365 11.349762 -7.996847 -7.499075 18.923613 -12.190805 -10.461458 27.988046 -16.688945 -13.336677 4.973798 -6.530714 5.396432 4.522515 -8.814933 7.799665 -4.973798 0.100528 -5.293747 -4.522515 -1.405967 -8.217476
1.782013 0.000000 1.114717 4.972609 0.000000 2.673020 -7.608452 2.701849 0.150697 -3.310430 0.614610 0.633419 -0.568228 -0.445762 0.651291 -3.344363 0.979513 0.296182 -0.882659 -0.027287 0.349852 -12.500000 0.523360 4.084793 -20.438613 2.538912 5.088785 -29.793869 5.531493 5.700774 12.500000 -8.386706 -7.489722 20.438613 -12.630766 -10.421495 29.793869 -17.108981 -13.251004 4.158234 -6.269548 5.317221 3.276635 -8.358703 7.664661 -4.158234 -0.335005 -5.374271 -3.276635 -2.052513 -8.321555
1.796055 0.000000 1.104146 4.982464 0.000000 2.694083 -7.748665 2.832740 0.045236 -3.502003 0.742635 0.583170 -0.691082 -0.384462 0.632800 -3.465134 1.071407 0.249070 -0.966220 0.021714 0.333585 -13.615976 1.201368 3.851559 -21.897591 3.469457 4.748815 -31.518029 6.683718 5.248526 13.615976 -8.737722 -7.470308 21.897591 -13.012229 -10.367535 31.518029 -17.449778 -13.147531 3.335375 -5.989795 5.233440 2.025007 -7.877694 7.523068 -3.335375 -0.769546 -5.450174 -2.025007 -2.692974 -8.418480
